<svg width="24" height="24" viewBox="0 0 24 24" fill="none" xmlns="http://www.w3.org/2000/svg">
<path d="M18.8955 4.51758C20.7276 5.38788 21.9999 7.26441 22 9.43359V14.5664C21.9998 17.5611 19.5756 20 16.5996 20C14.6532 19.9999 12.9375 18.9776 11.9834 17.4561C10.9992 18.9645 9.3636 19.9999 7.40039 20C6.27397 20 5.22707 19.6494 4.36035 19.0527L18.8955 4.51758ZM7.40039 4C9.34675 4.00014 11.0625 5.02236 12.0166 6.54395C12.9983 5.03929 14.6283 4.00527 16.585 4L2.94824 17.6367C2.35063 16.7624 2.00008 15.7047 2 14.5664V9.43359C2.0002 6.4389 4.42437 4 7.40039 4Z" fill="#E9ECEF"/>
<path d="M15.5029 7.90918C16.3988 8.28803 17.0136 9.16879 17.0137 10.2168V13.7266C17.0134 15.1301 15.9104 16.2324 14.5068 16.2324C13.1032 16.2324 12.0002 15.1301 12 13.7266V11.4131L14.0391 9.37305C14.0175 9.45004 14.0059 9.53118 14.0059 9.61523C14.0059 10.1164 14.4064 10.5175 15.0078 10.5176C15.6094 10.5176 16.0107 10.1165 16.0107 9.61523C16.0106 9.114 15.6093 8.71289 15.0078 8.71289C14.876 8.71292 14.754 8.73317 14.6436 8.76855L15.5029 7.90918ZM8.88379 14.5283C8.63799 15.2766 8.05701 15.8579 7.30859 16.1035L8.88379 14.5283ZM6.50684 7.70996C7.91047 7.71002 9.01354 8.81318 9.01367 10.2168V11.5713L4.91211 15.6719C4.35277 15.2157 4.00013 14.5194 4 13.7266V10.2168C4.00013 8.81314 5.10315 7.70996 6.50684 7.70996ZM7.00781 8.6123C6.4065 8.61242 6.00607 9.01356 6.00586 9.51465C6.00586 10.0159 6.40634 10.5174 7.00781 10.5176C7.60936 10.5176 8.01066 10.1165 8.01074 9.61523C8.01061 9.11397 7.60933 8.6123 7.00781 8.6123Z" fill="#5D6474"/>
<path d="M20.2929 2.29295C20.6834 1.90243 21.3164 1.90243 21.707 2.29295C22.0975 2.68348 22.0975 3.31649 21.707 3.70702L3.70696 21.707C3.31643 22.0975 2.68342 22.0975 2.29289 21.707C1.90237 21.3165 1.90237 20.6835 2.29289 20.293L20.2929 2.29295Z" fill="#E9ECEF"/>
</svg>
