<svg width="20" height="20" viewBox="0 0 20 20" fill="none" xmlns="http://www.w3.org/2000/svg">
<path fill-rule="evenodd" clip-rule="evenodd" d="M18.3332 10.1895C18.3332 9.59856 18.2791 9.03038 18.1786 8.48492L10.1699 8.48492L10.1699 11.7084L14.7463 11.7084C14.5492 12.7501 13.9501 13.6327 13.0495 14.2236L13.0495 16.3145L15.7976 16.3145C17.4055 14.8637 18.3332 12.7273 18.3332 10.1895Z" fill="#4285F4"/>
<path fill-rule="evenodd" clip-rule="evenodd" d="M10.1699 18.3334C12.4658 18.3334 14.3907 17.5872 15.7976 16.3145L13.0495 14.2236C12.288 14.7236 11.314 15.019 10.1699 15.019C7.95516 15.019 6.08055 13.5531 5.41187 11.5834L2.57096 11.5834L2.57096 13.7424C3.97016 16.4659 6.84586 18.3334 10.1699 18.3334Z" fill="#34A853"/>
<path fill-rule="evenodd" clip-rule="evenodd" d="M5.41187 11.5834C5.2418 11.0834 5.14517 10.5493 5.14517 10.0001C5.14517 9.45083 5.2418 8.91674 5.41187 8.41674L5.41187 6.25764L2.57096 6.25765C1.99505 7.38265 1.66651 8.65537 1.66651 10.0001C1.66651 11.3448 1.99505 12.6174 2.57096 13.7424L5.41187 11.5834Z" fill="#FBBC05"/>
<path fill-rule="evenodd" clip-rule="evenodd" d="M10.1699 4.98109C11.4184 4.98108 12.5393 5.40154 13.4205 6.2273L15.8595 3.83714C14.3868 2.49245 12.462 1.66669 10.1699 1.66669C6.84585 1.66669 3.97015 3.53416 2.57096 6.25765L5.41187 8.41674C6.08054 6.44704 7.95516 4.98109 10.1699 4.98109Z" fill="#EA4335"/>
</svg>
